<svg version="1.2" xmlns="http://www.w3.org/2000/svg" viewBox="0 0 148 148" width="200" height="200">
	<title>Group 6-svg</title>
	<style>
		.s0 { fill: #231f20 } 
		.s1 { fill: none;stroke: #231f20;stroke-width: 1.4 } 
	</style>
	<g id="Group_6">
		<path id="B" class="s0" aria-label="B"  d="m42.9 29.4l1.4-0.9q0.6-0.4 0.7-0.9 0.1-0.4-0.2-0.9-0.3-0.5-0.8-0.6-0.5 0-1.1 0.4l-1.4 0.9zm2.9 4.2l1.5-1q0.7-0.5 0.9-1.1 0.1-0.5-0.3-1.2-0.4-0.6-1-0.7-0.6 0-1.4 0.5l-1.4 1zm1.4-6.1q0.9-0.3 1.8 0.1 0.9 0.3 1.5 1.2 0.9 1.4 0.5 2.7-0.5 1.3-2.4 2.7l-4.1 2.8-6.6-9.7 3.7-2.5q2-1.4 3.3-1.4 1.3 0 2.2 1.3 0.5 0.7 0.5 1.5 0 0.7-0.4 1.3z"/>
		<path id="R" class="s0" aria-label="R"  d="m55.1 23.7l1.2-0.4q0.9-0.3 1.1-0.8 0.3-0.5 0-1.2-0.2-0.8-0.7-1-0.5-0.2-1.4 0.2l-1.2 0.4zm1.5 1.7l-0.8 0.3 1.5 4.1-2.8 1-4-11 4.3-1.5q2.2-0.8 3.5-0.4 1.3 0.3 1.8 1.9 0.4 1.1 0.1 2-0.2 0.9-1.2 1.6 0.6-0.1 1.3 0.2 0.6 0.3 1.4 1.1l2.7 2.6-3 1-2.4-2.2q-0.7-0.7-1.2-0.8-0.5-0.2-1.2 0.1z"/>
		<path id="E" class="s0" aria-label="E"  d="m66.6 27.3l-1.1-11.6 8.1-0.8 0.2 2.3-5.1 0.5 0.2 2.2 4.8-0.5 0.2 2.3-4.8 0.4 0.3 2.7 5.3-0.5 0.2 2.2z"/>
		<path id="W" class="s0" aria-label="W"  d="m79.6 27l-0.5-12 2.8 0.5 0.4 8.8 3.5-8 2.9 0.5 0.3 8.8 3.6-8 2.8 0.5-4.9 11-3.4-0.7-0.4-9.1-3.7 8.3z"/>
		<path id="P" class="s0" aria-label="P"  d="m19.8 91.1l10.9-4.2 1.8 4.6q0.8 2.1 0.3 3.6-0.5 1.4-2.2 2.1-1.7 0.7-3-0.1-1.4-0.7-2.2-2.8l-0.7-1.8-3.8 1.4zm10.6 0.9l-0.7-1.5-3 1.2 0.6 1.5q0.3 0.8 0.9 1.1 0.6 0.3 1.3 0 0.7-0.3 1-0.9 0.2-0.6-0.1-1.4z"/>
		<path id="O" class="s0" aria-label="O"  d="m36.7 102.1q-0.9-1.1-2.1-1.1-1.3 0-2.8 1.1-1.4 1.1-1.8 2.3-0.4 1.3 0.5 2.4 0.8 1.1 2.1 1.1 1.2 0 2.7-1.2 1.5-1.1 1.8-2.3 0.4-1.2-0.4-2.3zm1.7-1.3q1.7 2.2 1.4 4.5-0.4 2.2-2.6 3.9-2.3 1.7-4.5 1.4-2.3-0.3-4-2.5-1.7-2.3-1.3-4.5 0.3-2.3 2.6-4 2.2-1.7 4.5-1.4 2.2 0.3 3.9 2.6z"/>
		<path id="U" class="s0" aria-label="U"  d="m39.7 112.8l4.1-5.7 2.4 1.8-4.1 5.6q-0.9 1.2-0.9 2 0.1 0.8 0.9 1.4 0.9 0.6 1.6 0.4 0.8-0.2 1.6-1.4l4.2-5.6 2.4 1.8-4.1 5.6q-1.5 2-3.2 2.3-1.7 0.2-3.8-1.3-2-1.5-2.3-3.2-0.3-1.7 1.2-3.7z"/>
		<path id="R" class="s0" aria-label="R"  d="m55.4 120.1l1.2 0.4q0.9 0.4 1.4 0.2 0.5-0.2 0.8-0.9 0.3-0.8 0-1.3-0.3-0.4-1.1-0.8l-1.2-0.4zm0 2.2l-0.8-0.3-1.5 4.2-2.8-1.1 4.1-10.9 4.3 1.6q2.1 0.8 2.9 1.9 0.7 1.1 0.1 2.7-0.4 1.1-1.2 1.6-0.8 0.5-1.9 0.4 0.5 0.4 0.8 1 0.2 0.6 0.4 1.8l0.3 3.6-3-1.1-0.3-3.2q-0.1-1-0.4-1.4-0.3-0.5-1-0.8z"/>
		<path id="E" class="s0" aria-label="E"  d="m105.4 120.8l-7-9.3 6.5-4.9 1.4 1.8-4.1 3.1 1.3 1.7 3.8-2.8 1.4 1.8-3.9 2.9 1.6 2.1 4.3-3.1 1.3 1.8z"/>
		<path id="N" class="s0" aria-label="N"  d="m116 111.9l-9.2-7.2 2-2.7 9 1.6-6.3-4.9 1.7-2.2 9.2 7.1-2.1 2.7-8.9-1.6 6.3 4.9z"/>
		<path id="J" class="s0" aria-label="J"  d="m124 97.8l-9.6-4.3 1.3-2.8 9.6 4.4q2 0.9 2.4 2.4 0.5 1.5-0.4 3.7l-0.3 0.5-2.1-0.9 0.2-0.4q0.4-0.9 0.1-1.5-0.2-0.7-1.2-1.1z"/>
		<path id="O" class="s0" aria-label="O"  d="m120.6 81q-0.3 1.3 0.6 2.2 0.8 1 2.7 1.3 1.8 0.3 2.9-0.3 1.1-0.5 1.4-1.9 0.2-1.3-0.6-2.3-0.9-0.9-2.7-1.2-1.8-0.3-3 0.2-1.1 0.6-1.3 2zm-2.2-0.4q0.5-2.8 2.4-4.1 1.8-1.3 4.6-0.8 2.8 0.5 4.1 2.4 1.3 1.8 0.8 4.6-0.5 2.8-2.3 4.1-1.9 1.3-4.7 0.8-2.8-0.5-4.1-2.4-1.3-1.9-0.8-4.6z"/>
		<path id="Y" class="s0" aria-label="Y"  d="m125.7 68.8l-6.3 5.1-0.3-3.3 3.9-3-4.4-2.3-0.3-3.3 7.2 3.8 4.9-0.4 0.2 3z"/>
		<path id="Ellipse_3" class="s1" d="m81 113.3c-22.1 3.9-43.2-10.8-47.1-33-3.9-22.2 10.8-43.2 33-47.1 22.1-4 43.2 10.8 47.1 32.9 3.9 22.2-10.8 43.3-33 47.2z"/>
		<path id="Ellipse_4" class="s1" d="m84.9 135.1c-34.2 6.1-66.8-16.7-72.9-50.9-6-34.3 16.8-66.9 51-72.9 34.3-6 66.8 16.7 72.9 51 6 34.2-16.8 66.8-51 72.8z"/>
		<path id="Line_1" class="s1" d="m127.6 39.9l-18.9 12.2"/>
		<path id="Line_2" class="s1" d="m12.4 60.2l22 5"/>
		<path id="Line_3" class="s1" d="m81.1 113.7l3.8 21.4"/>
		<path id="Path_16" class="s0" d="m52.5 70.4l-7.7 1.3q-0.1 0-0.1 0.1-0.1 0-0.1 0.1-0.1 0-0.1 0.1 0 0.1 0 0.1l2.1 12q0 0.1 0.1 0.1 0 0.1 0.1 0.1 0 0.1 0.1 0.1 0 0 0.1 0l7.7-1.4q0.1 0 0.1 0 0.1-0.1 0.1-0.1 0-0.1 0.1-0.1 0-0.1-0.1-0.2l-0.1-0.8q0-0.1 0-0.2-0.1 0-0.1-0.1-0.1 0-0.2 0 0 0-0.1 0l-6.2 1.1-0.8-4.1 5.2-0.9q0 0 0.1-0.1 0.1 0 0.1-0.1 0 0 0-0.1 0.1 0 0-0.1l-0.1-0.9q0-0.1-0.1-0.1 0-0.1 0-0.1-0.1-0.1-0.2-0.1 0 0-0.1 0l-5.1 0.9-0.7-3.9 6.2-1.1q0.1 0 0.1 0 0.1-0.1 0.1-0.1 0.1-0.1 0.1-0.1 0-0.1 0-0.2l-0.2-0.9q0 0 0-0.1 0 0-0.1-0.1-0.1 0-0.1 0-0.1 0-0.1 0"/>
		<path id="Path_17" class="s0" d="m61.9 74.9l-2.9-0.4c-1.5-0.2-2.1-0.7-2.3-1.6-0.2-1.2 0.7-2.1 2.3-2.4q0.5-0.1 1-0.1 0.5 0.1 1 0.3 0.5 0.2 0.8 0.6 0.4 0.3 0.6 0.8 0 0 0.1 0.1 0 0 0.1 0.1 0 0 0.1 0 0 0 0.1 0l1-0.2q0 0 0.1 0 0 0 0 0 0.1 0 0.1-0.1 0 0 0 0 0 0 0.1-0.1 0 0 0-0.1 0 0 0 0 0-0.1-0.1-0.1c-0.8-2.2-2.7-3.2-5.2-2.7-2.7 0.4-4.2 2.2-3.8 4.3 0.3 1.6 1.4 2.6 3.4 2.9l2.9 0.4c1.4 0.1 2.1 0.6 2.3 1.6 0.2 1.2-0.8 2.1-2.5 2.4q-2.6 0.4-3.6-1.6 0 0-0.1-0.1 0 0-0.1 0 0-0.1-0.1-0.1 0 0-0.1 0l-1 0.2q0 0-0.1 0 0 0 0 0-0.1 0.1-0.1 0.1 0 0 0 0 0 0.1 0 0.1-0.1 0.1-0.1 0.1 0 0 0 0.1 0 0 0.1 0c0.8 2.2 2.8 3.2 5.5 2.7 2.7-0.5 4.2-2.2 3.9-4.3q-0.5-2.5-3.4-2.9z"/>
		<path id="Path_18" fill-rule="evenodd" class="s0" d="m75.9 70.7c0.5 2.7-0.7 4.5-3.5 5l-3.2 0.6 0.7 3.7q0 0.1 0 0.1 0 0.1 0 0.1-0.1 0.1-0.1 0.1-0.1 0.1-0.2 0.1l-1.1 0.2q0 0-0.1 0-0.1 0-0.1-0.1-0.1 0-0.1-0.1 0 0 0-0.1l-2.2-12q0 0 0-0.1 0-0.1 0.1-0.1 0-0.1 0.1-0.1 0-0.1 0.1-0.1l4.6-0.8c2.7-0.5 4.5 0.8 5 3.6zm-4.7-2l-3.2 0.5 1 5.5 3.1-0.5c1.7-0.3 2.4-1.5 2.1-3.2-0.3-1.8-1.4-2.6-3-2.3z"/>
		<path id="Path_19" fill-rule="evenodd" class="s0" d="m97.2 63q1.3 0.3 2.4 1 1.1 0.8 1.8 1.9 0.7 1.1 0.9 2.4c0.5 2.7-0.7 5.4-2.9 6.8-2.3 1.5-5.3 1.4-7.5-0.1-2.2-1.6-3.2-4.3-2.7-7 0.6-2.6 2.7-4.6 5.4-5.1q1.3-0.2 2.6 0.1zm2.7 3.8q-0.5-0.8-1.3-1.4-0.8-0.5-1.8-0.8-0.9-0.2-1.9 0c-2 0.4-3.6 1.9-4 3.8-0.4 2 0.4 4 2 5.2 1.7 1.1 3.8 1.2 5.5 0.1 1.7-1.1 2.6-3.1 2.3-5.1q-0.2-0.9-0.8-1.8z"/>
		<path id="Path_20" fill-rule="evenodd" class="s0" d="m89.2 76.5q0 0 0 0 0 0.1 0.1 0.1 0 0 0 0.1 0 0 0 0.1-0.1 0-0.1 0 0 0.1-0.1 0.1 0 0 0 0-0.1 0.1-0.1 0.1l-1.3 0.2q-0.1 0-0.1 0-0.1 0-0.1 0-0.1-0.1-0.1-0.1-0.1 0-0.1-0.1l-2.5-2.9-1-1.1-3.1 0.5 0.7 4.5q0.1 0 0.1 0.1-0.1 0-0.1 0.1 0 0.1-0.1 0.1 0 0-0.1 0l-1.1 0.2q-0.1 0-0.2 0 0 0-0.1 0 0-0.1-0.1-0.1 0-0.1 0-0.1l-2.1-12q0-0.1 0-0.2 0 0 0-0.1 0.1 0 0.1-0.1 0.1 0 0.1 0l4.5-0.8c2.7-0.5 4.5 0.7 5 3.2q0.1 0.6 0 1.1-0.1 0.6-0.3 1.1-0.3 0.5-0.7 0.9-0.4 0.4-0.9 0.7c0.5 0.5 1.1 1.2 1.3 1.5zm-4-8.8q-0.2-0.5-0.7-0.8-0.4-0.2-0.9-0.3-0.5-0.1-1 0.1l-3 0.5 0.8 4.8 3-0.5q0.6-0.1 1-0.3 0.5-0.2 0.8-0.7 0.3-0.4 0.4-0.9 0.1-0.5 0-1-0.1-0.5-0.4-0.9z"/>
	</g>
</svg>